<svg width="114" height="31" viewBox="0 0 114 31" fill="none" xmlns="http://www.w3.org/2000/svg"><path fill-rule="evenodd" clip-rule="evenodd" d="M12.7453 4.78654V11.6513C9.0315 11.6645 6.35273 15.016 6.72936 18.4869C7.06542 21.584 9.55864 23.957 12.6151 23.9996C15.8339 24.0445 18.6229 21.4293 18.6923 17.8716H25.5225C25.5229 19.8442 25.1193 21.7175 24.2944 23.4966C23.0932 26.0862 21.2561 28.0578 18.8116 29.4339C14.0609 32.1082 8.0154 31.2978 4.05099 27.4596C-0.0220225 23.5161 -1.14287 17.4344 1.2329 12.2665C3.6863 6.92955 8.81792 4.65826 12.7453 4.78654ZM24.0903 13.2712V6.4901H17.1715V0H30.7509V13.2712H24.0903ZM71.3423 23.9947H73.393C73.3978 23.9796 73.4023 23.9677 73.4061 23.9578C73.4126 23.9404 73.417 23.9288 73.417 23.9171C73.417 23.3531 73.419 22.7892 73.4213 22.2252C73.4266 20.8549 73.432 19.4847 73.4052 18.1152C73.381 16.8874 72.8705 15.8999 71.7353 15.3747C71.3707 15.2059 70.9546 15.1035 70.5548 15.0747C69.4357 14.994 68.4238 15.2622 67.6727 16.2035C67.6202 16.2693 67.565 16.3325 67.5038 16.4022L67.5036 16.4024L67.5034 16.4028C67.4728 16.4376 67.4409 16.4741 67.4071 16.5133C66.8399 15.5065 65.9655 15.0895 64.8917 15.0619C63.8254 15.0345 62.9119 15.3938 62.1705 16.3291V15.3509H60.1489V23.9929H62.2501C62.2501 23.8538 62.2497 23.717 62.2495 23.5818V23.5814V23.581V23.5804V23.58V23.5796V23.5792V23.5788V23.5785V23.5781V23.5777C62.2489 23.2953 62.2484 23.0198 62.2505 22.744C62.2535 22.3516 62.2543 21.959 62.2552 21.5664C62.2573 20.5862 62.2594 19.6058 62.2955 18.6269C62.3293 17.7065 62.9079 17.1232 63.7938 16.9799C64.7617 16.8234 65.4892 17.3055 65.671 18.2414C65.7204 18.4949 65.7391 18.7581 65.7404 19.0172C65.7461 20.1876 65.7467 21.3583 65.747 22.5289C65.7472 22.9115 65.7474 23.2943 65.7478 23.6771C65.748 23.7829 65.748 23.8884 65.748 23.9945H67.8589V23.657C67.8593 23.1845 67.8587 22.712 67.8579 22.2395V22.2279C67.8564 21.1008 67.8547 19.9736 67.8663 18.8466C67.8764 17.8297 68.4523 17.1526 69.3967 16.9842C70.3595 16.8127 71.0699 17.2961 71.27 18.2763C71.3175 18.5091 71.3268 18.7531 71.3283 18.9922C71.3347 20.1563 71.3372 21.3204 71.3399 22.4847C71.3406 22.8638 71.3414 23.2429 71.3423 23.622C71.3425 23.6996 71.3425 23.7772 71.3425 23.8599C71.3423 23.9032 71.3423 23.948 71.3423 23.9947ZM46.7229 20.623C47.2536 21.1193 47.7713 21.6038 48.294 22.0927C47.2863 23.2363 46.0222 23.8597 44.5649 24.0994C42.678 24.4099 40.895 24.1213 39.2498 23.0923C37.6259 22.0759 36.7462 20.5649 36.4722 18.6523C35.9889 15.2792 38.1275 12.2919 41.3803 11.5503C43.1729 11.1413 44.9018 11.2687 46.5667 12.0935C47.2264 12.4204 47.8232 12.8913 48.2868 13.4535C47.7763 13.9256 47.2654 14.3981 46.74 14.8842C46.6925 14.8424 46.6469 14.8023 46.6024 14.7633L46.5929 14.7549L46.5823 14.7455L46.581 14.7444C46.4926 14.6668 46.4092 14.5933 46.3254 14.5202C44.5523 12.9743 41.7489 13.0499 40.0609 14.6944C39.1161 15.6148 38.7991 16.7823 38.8461 18.0773C38.9143 19.9595 40.3368 21.8275 42.738 22.089C44.2991 22.259 45.5913 21.7605 46.7229 20.623ZM80.0962 16.9643C81.6122 16.9636 82.6722 18.0655 82.6736 19.643C82.6749 21.2436 81.6229 22.3473 80.0901 22.3528C78.5635 22.3585 77.4651 21.1989 77.4744 19.591C77.4831 18.0841 78.6002 16.9651 80.0962 16.9643ZM77.394 15.2893H75.4262V27.1577H77.5204V25.1273V23.0653C79.2213 24.7848 82.3758 24.2032 83.6116 22.8818C85.0254 21.3699 85.2855 18.7889 84.1054 17.0608C83.3391 15.9385 82.2491 15.3462 80.9284 15.2181C79.6254 15.0919 78.4136 15.3163 77.394 16.3698V15.2893ZM101.262 18.8001C101.394 17.9526 100.226 16.731 98.9121 16.712C97.5042 16.6917 96.2527 17.673 96.3038 18.8001H101.262ZM103.42 20.2613H96.2835C96.2977 20.317 96.3093 20.3703 96.3201 20.4211C96.3425 20.5243 96.3627 20.6183 96.4001 20.7039C96.7927 21.6014 97.4919 22.1013 98.4172 22.2504C99.7044 22.4581 100.564 22.2563 101.636 21.3628L102.096 21.8822L102.415 22.2428L102.801 22.6788C101.9 23.6328 100.81 24.0646 99.5629 24.1239C98.6092 24.1692 97.6714 24.101 96.7813 23.708C94.7638 22.8173 93.9164 21.0806 94.1106 19.0135C94.3002 16.9944 95.7644 15.4528 97.7142 15.0924C99.2625 14.8062 100.689 15.0507 101.924 16.0973C102.813 16.8507 103.245 17.8601 103.344 19.0264C103.367 19.2953 103.382 19.565 103.397 19.8478V19.8483C103.404 19.9826 103.412 20.1198 103.42 20.2613ZM56.488 19.6418C56.4798 21.1227 55.3202 22.3139 53.8855 22.3151C52.0081 22.2686 51.1794 21.133 51.1457 19.4923C51.1142 17.9458 52.2914 16.7952 53.808 16.7944C55.378 16.7934 56.4971 17.9826 56.488 19.6418ZM50.4404 22.957C51.4087 23.7907 52.5384 24.1561 53.7938 24.1231C53.8399 24.1231 53.8861 24.1239 53.9323 24.1244C54.0324 24.1258 54.1325 24.1272 54.2325 24.1221C56.6318 24.0009 58.4928 22.319 58.6325 19.9224C58.7381 18.1122 58.1115 16.6672 56.5577 15.7227C55.4785 15.0667 54.31 14.8798 53.067 15.0299C50.608 15.3267 49.0757 17.1418 48.9746 19.2012C48.902 20.6748 49.3016 21.9762 50.4404 22.957ZM112.173 17.2754C112.172 17.2886 112.171 17.3016 112.171 17.3142V17.3145C112.166 17.3881 112.163 17.4519 112.162 17.5158C112.161 18.6883 112.162 19.861 112.162 21.0335C112.162 21.1236 112.165 21.2139 112.171 21.304C112.214 21.9198 112.519 22.2313 113.125 22.2465C113.316 22.2514 113.507 22.235 113.709 22.2178C113.803 22.2098 113.899 22.2015 113.998 22.1953C113.998 22.328 113.998 22.4595 113.999 22.5902V22.5932C114.001 22.9901 114.002 23.3793 113.988 23.768C113.985 23.8509 113.869 23.981 113.785 24.0011C112.92 24.2079 112.059 24.2214 111.245 23.8024C110.346 23.3395 110.036 22.5091 110.022 21.5412C110.01 20.6163 110.013 19.6912 110.016 18.7662C110.017 18.3682 110.018 17.9703 110.018 17.5724V17.2136H108.419V15.3354L108.436 15.3338L108.455 15.3319L108.469 15.3306L108.495 15.328C108.534 15.3241 108.573 15.3201 108.612 15.3161C108.752 15.3017 108.89 15.2874 109.028 15.2797C109.736 15.2401 110.163 14.8058 110.184 14.0759C110.193 13.7622 110.191 13.4481 110.189 13.1231V13.1227V13.1224V13.122V13.1217V13.1213C110.188 12.9721 110.187 12.8205 110.187 12.6655C110.325 12.6655 110.461 12.6652 110.596 12.6649H110.597C111.074 12.6637 111.536 12.6626 111.997 12.6764C112.054 12.6783 112.153 12.8316 112.154 12.9162C112.164 13.4318 112.163 13.9476 112.162 14.4635C112.162 14.6191 112.162 14.7748 112.162 14.9305V15.3101L112.968 15.3101L113.427 15.3102C113.709 15.3102 113.849 15.3102 113.918 15.3822C113.987 15.4535 113.987 15.5955 113.987 15.8781C113.987 15.9822 113.987 16.0863 113.986 16.1904C113.984 16.4371 113.983 16.6839 113.991 16.9303C113.997 17.1274 113.926 17.1949 113.736 17.1915C113.369 17.1849 113.002 17.1861 112.629 17.1873C112.479 17.1878 112.329 17.1883 112.178 17.1883C112.177 17.2021 112.176 17.2156 112.176 17.2287C112.175 17.2362 112.175 17.2437 112.174 17.251L112.173 17.2754ZM92.5074 12.4958H90.4195V23.9964H92.5074V12.4958ZM88.4524 24.0004H86.3793V15.3463H88.4524V24.0004ZM107.056 15.3446H104.979V23.9888H107.056V15.3446ZM87.411 14.03C86.6432 14.0264 86.0535 13.4402 86.0563 12.6836C86.0594 11.8969 86.6626 11.3017 87.4513 11.3079C88.2143 11.3139 88.8242 11.9082 88.8244 12.6457C88.8244 13.4539 88.2322 14.0339 87.411 14.03ZM104.606 12.7007C104.611 13.4547 105.208 14.0327 105.98 14.0305C106.784 14.0284 107.386 13.4396 107.382 12.6591C107.378 11.9038 106.764 11.3091 105.987 11.308C105.205 11.3071 104.601 11.9161 104.606 12.7007Z" fill="currentColor"></path></svg>