<svg width="178" height="27" viewBox="0 0 178 27" fill="none" xmlns="http://www.w3.org/2000/svg">
<path d="M32.872 3.344V3.984C32.4027 4.19733 31.9013 4.61333 31.368 5.232C30.8347 5.85067 30.376 6.81067 29.992 8.112L24.456 26.032C24.2427 26.0107 24.0187 26 23.784 26C23.5493 25.9787 23.304 25.968 23.048 25.968C22.8347 25.968 22.6 25.9787 22.344 26C22.1093 26 21.8853 26.0107 21.672 26.032L14.952 5.584C14.76 4.98667 14.5147 4.58133 14.216 4.368C13.9387 4.13333 13.6187 4.00533 13.256 3.984V3.344C13.9173 3.36533 14.696 3.38667 15.592 3.408C16.488 3.42933 17.3947 3.44 18.312 3.44C19.272 3.44 20.1787 3.42933 21.032 3.408C21.8853 3.38667 22.5787 3.36533 23.112 3.344V3.984C22.4507 4.00533 21.9387 4.08 21.576 4.208C21.2133 4.336 21 4.592 20.936 4.976C20.8933 5.33867 21 5.904 21.256 6.672L25.704 20.272L24.872 21.904L28.296 10.992C28.8507 9.24267 29.1173 7.86667 29.096 6.864C29.0747 5.84 28.8187 5.11467 28.328 4.688C27.8587 4.24 27.1867 4.00533 26.312 3.984V3.344C27.1013 3.36533 27.8053 3.38667 28.424 3.408C29.064 3.42933 29.7253 3.44 30.408 3.44C30.856 3.44 31.2933 3.42933 31.72 3.408C32.168 3.38667 32.552 3.36533 32.872 3.344ZM9.896 3.344V3.984C9.49067 4.048 9.21333 4.21866 9.064 4.496C8.91467 4.77333 8.86133 5.11467 8.904 5.52C8.968 5.904 9.064 6.288 9.192 6.672L14.024 20.592L13.16 21.84L17.128 10.672L17.576 11.568L12.616 26.032C12.4027 26.0107 12.168 26 11.912 26C11.6773 25.9787 11.4427 25.968 11.208 25.968C10.9733 25.968 10.7387 25.9787 10.504 26C10.2693 26 10.0453 26.0107 9.832 26.032L2.536 6.032C2.25867 5.264 1.93867 4.74133 1.576 4.464C1.21333 4.16533 0.882667 4.00533 0.584 3.984V3.344C1.26667 3.36533 2.088 3.38667 3.048 3.408C4.008 3.42933 4.92533 3.44 5.8 3.44C6.67467 3.44 7.464 3.42933 8.168 3.408C8.872 3.38667 9.448 3.36533 9.896 3.344Z" fill="black"/>
<path d="M54.584 9.672V9.992C54.3493 10.0773 54.104 10.264 53.848 10.552C53.592 10.8293 53.368 11.2773 53.176 11.896L50.36 21.032C50.2747 21.0213 50.184 21.016 50.088 21.016C49.992 21.016 49.896 21.016 49.8 21.016C49.704 21.016 49.608 21.016 49.512 21.016C49.416 21.016 49.3253 21.0213 49.24 21.032L45.88 10.856C45.7733 10.5253 45.64 10.3013 45.48 10.184C45.3307 10.0667 45.1707 10.0027 45 9.992V9.672C45.2987 9.68267 45.6507 9.69333 46.056 9.704C46.472 9.71467 46.8827 9.72 47.288 9.72C47.7573 9.72 48.1947 9.71467 48.6 9.704C49.016 9.69333 49.3467 9.68267 49.592 9.672V9.992C49.272 10.0027 49.016 10.04 48.824 10.104C48.6427 10.168 48.536 10.2907 48.504 10.472C48.4827 10.6533 48.536 10.9413 48.664 11.336L50.936 18.28L50.568 18.936L52.376 13.192C52.632 12.3813 52.7547 11.7467 52.744 11.288C52.7333 10.8293 52.6107 10.504 52.376 10.312C52.1413 10.1093 51.8053 10.0027 51.368 9.992V9.672C51.7307 9.68267 52.072 9.69333 52.392 9.704C52.712 9.71467 53.032 9.72 53.352 9.72C53.5973 9.72 53.8213 9.71467 54.024 9.704C54.2373 9.69333 54.424 9.68267 54.584 9.672ZM43.16 9.672V9.992C42.9467 10.024 42.7973 10.104 42.712 10.232C42.6267 10.3493 42.5893 10.5093 42.6 10.712C42.6213 10.904 42.6693 11.112 42.744 11.336L45.192 18.44L44.76 19.016L46.808 13.032L47.032 13.464L44.52 21.032C44.4347 21.0213 44.344 21.016 44.248 21.016C44.152 21.016 44.056 21.016 43.96 21.016C43.864 21.016 43.768 21.016 43.672 21.016C43.576 21.016 43.4853 21.0213 43.4 21.032L39.816 11.016C39.6773 10.6213 39.512 10.3547 39.32 10.216C39.1387 10.0773 38.968 10.0027 38.808 9.992V9.672C39.128 9.68267 39.5067 9.69333 39.944 9.704C40.3813 9.71467 40.7973 9.72 41.192 9.72C41.6187 9.72 41.9973 9.71467 42.328 9.704C42.6693 9.69333 42.9467 9.68267 43.16 9.672ZM57.8714 12.504C58.65 12.504 59.3327 12.648 59.9194 12.936C60.506 13.224 60.9647 13.688 61.2954 14.328C61.626 14.968 61.7914 15.816 61.7914 16.872C61.7914 17.928 61.626 18.776 61.2954 19.416C60.9647 20.0453 60.506 20.504 59.9194 20.792C59.3327 21.08 58.65 21.224 57.8714 21.224C57.114 21.224 56.4367 21.08 55.8394 20.792C55.2527 20.504 54.7887 20.0453 54.4474 19.416C54.1167 18.776 53.9514 17.928 53.9514 16.872C53.9514 15.816 54.1167 14.968 54.4474 14.328C54.7887 13.688 55.2527 13.224 55.8394 12.936C56.4367 12.648 57.114 12.504 57.8714 12.504ZM57.8714 12.824C57.4447 12.824 57.0874 13.144 56.7994 13.784C56.5114 14.4133 56.3674 15.4427 56.3674 16.872C56.3674 18.3013 56.5114 19.3307 56.7994 19.96C57.0874 20.5893 57.4447 20.904 57.8714 20.904C58.3087 20.904 58.666 20.5893 58.9434 19.96C59.2314 19.3307 59.3754 18.3013 59.3754 16.872C59.3754 15.4427 59.2314 14.4133 58.9434 13.784C58.666 13.144 58.3087 12.824 57.8714 12.824ZM68.2943 12.504C68.6356 12.504 68.9129 12.5787 69.1263 12.728C69.3396 12.8667 69.4943 13.048 69.5903 13.272C69.6969 13.496 69.7503 13.7307 69.7503 13.976C69.7503 14.3707 69.6329 14.696 69.3983 14.952C69.1743 15.1973 68.8756 15.32 68.5023 15.32C68.1289 15.32 67.8356 15.2293 67.6223 15.048C67.4196 14.856 67.3183 14.6053 67.3183 14.296C67.3183 13.9973 67.3823 13.752 67.5103 13.56C67.6489 13.3573 67.8196 13.1867 68.0223 13.048C67.8729 13.0053 67.7236 13.0107 67.5743 13.064C67.3716 13.096 67.1796 13.1813 66.9983 13.32C66.8169 13.448 66.6623 13.6133 66.5343 13.816C66.4063 14.008 66.3049 14.2213 66.2303 14.456C66.1556 14.68 66.1183 14.8987 66.1183 15.112V19.352C66.1183 19.864 66.2409 20.2107 66.4863 20.392C66.7423 20.5733 67.1209 20.664 67.6223 20.664V21C67.3769 20.9893 67.0196 20.9787 66.5503 20.968C66.0809 20.9467 65.5903 20.936 65.0783 20.936C64.6516 20.936 64.2196 20.9467 63.7823 20.968C63.3449 20.9787 63.0143 20.9893 62.7903 21V20.664C63.1636 20.664 63.4249 20.584 63.5743 20.424C63.7343 20.264 63.8143 19.96 63.8143 19.512V14.472C63.8143 13.992 63.7396 13.64 63.5903 13.416C63.4516 13.1813 63.1849 13.064 62.7903 13.064V12.728C63.1316 12.76 63.4623 12.776 63.7823 12.776C64.2303 12.776 64.6463 12.76 65.0303 12.728C65.4249 12.6853 65.7876 12.6267 66.1183 12.552V14.04C66.2463 13.752 66.4169 13.4907 66.6302 13.256C66.8436 13.0213 67.0889 12.84 67.3663 12.712C67.6436 12.5733 67.9529 12.504 68.2943 12.504ZM73.1008 8.472V19.512C73.1008 19.96 73.1701 20.264 73.3088 20.424C73.4581 20.584 73.7088 20.664 74.0608 20.664V21C73.8581 20.9893 73.5594 20.9787 73.1648 20.968C72.7808 20.9467 72.3861 20.936 71.9808 20.936C71.5648 20.936 71.1434 20.9467 70.7168 20.968C70.3008 20.9787 69.9861 20.9893 69.7728 21V20.664C70.1461 20.664 70.4074 20.584 70.5568 20.424C70.7168 20.264 70.7968 19.96 70.7968 19.512V10.392C70.7968 9.912 70.7221 9.56 70.5728 9.336C70.4341 9.10133 70.1674 8.984 69.7728 8.984V8.648C70.1141 8.68 70.4448 8.696 70.7648 8.696C71.2021 8.696 71.6181 8.68 72.0128 8.648C72.4074 8.60533 72.7701 8.54667 73.1008 8.472ZM78.3168 12.728V13.048C77.9861 13.112 77.6554 13.2507 77.3248 13.464C76.9941 13.6773 76.6581 13.9493 76.3168 14.28L75.0848 15.56L75.2448 15.256L77.9808 19.832C78.0981 20.024 78.2208 20.1947 78.3488 20.344C78.4768 20.4933 78.6314 20.6 78.8128 20.664V21C78.6528 20.9893 78.4128 20.9787 78.0928 20.968C77.7728 20.9467 77.4528 20.936 77.1328 20.936C76.7381 20.936 76.3434 20.9467 75.9488 20.968C75.5541 20.9787 75.2608 20.9893 75.0688 21V20.664C75.2821 20.664 75.4261 20.616 75.5008 20.52C75.5754 20.4133 75.5648 20.28 75.4688 20.12L73.8848 17.256C73.7568 17.0533 73.6288 16.9253 73.5008 16.872C73.3834 16.808 73.2234 16.7707 73.0208 16.76V16.456C73.2448 16.4347 73.4368 16.3973 73.5968 16.344C73.7674 16.2907 73.9221 16.1893 74.0608 16.04L75.2768 14.856C75.6394 14.5147 75.8208 14.2107 75.8208 13.944C75.8208 13.6773 75.7034 13.464 75.4688 13.304C75.2448 13.144 74.9461 13.0587 74.5728 13.048V12.728C74.8714 12.7387 75.1968 12.7493 75.5488 12.76C75.9008 12.7707 76.1994 12.776 76.4448 12.776C76.6581 12.776 76.8821 12.776 77.1168 12.776C77.3621 12.7653 77.5914 12.76 77.8048 12.76C78.0181 12.7493 78.1888 12.7387 78.3168 12.728ZM86.1324 12.552V22.312C86.1324 22.8133 86.2604 23.144 86.5164 23.304C86.7724 23.4747 87.1244 23.56 87.5724 23.56V23.896C87.295 23.8853 86.911 23.8693 86.4204 23.848C85.9404 23.8373 85.4284 23.832 84.8844 23.832C84.4897 23.832 84.1004 23.8373 83.7164 23.848C83.343 23.8693 83.0604 23.8853 82.8684 23.896V23.56C83.2204 23.56 83.4657 23.4853 83.6044 23.336C83.7537 23.1867 83.8284 22.8987 83.8284 22.472V14.472C83.8284 13.992 83.7537 13.64 83.6044 13.416C83.455 13.1813 83.1884 13.064 82.8044 13.064V12.728C83.1457 12.76 83.4764 12.776 83.7964 12.776C84.2337 12.776 84.6497 12.76 85.0444 12.728C85.439 12.6853 85.8017 12.6267 86.1324 12.552ZM88.6124 12.504C89.1564 12.504 89.6417 12.6533 90.0684 12.952C90.495 13.24 90.8364 13.6827 91.0924 14.28C91.3484 14.8667 91.4764 15.6027 91.4764 16.488C91.4764 17.2667 91.3857 17.9493 91.2044 18.536C91.0337 19.1227 90.783 19.6187 90.4524 20.024C90.1324 20.4187 89.743 20.7173 89.2844 20.92C88.8364 21.1227 88.3297 21.224 87.7644 21.224C87.3484 21.224 86.9697 21.1493 86.6284 21C86.287 20.8613 86.0257 20.6587 85.8444 20.392L86.0044 20.184C86.111 20.376 86.2604 20.5253 86.4524 20.632C86.655 20.7387 86.8844 20.792 87.1404 20.792C87.6204 20.792 87.999 20.632 88.2764 20.312C88.5537 19.9813 88.751 19.5227 88.8684 18.936C88.9964 18.3387 89.0604 17.6293 89.0604 16.808C89.0604 15.8907 89.0017 15.1707 88.8844 14.648C88.767 14.1253 88.607 13.752 88.4044 13.528C88.2017 13.304 87.9564 13.192 87.6684 13.192C87.2844 13.192 86.9324 13.3413 86.6124 13.64C86.303 13.9387 86.127 14.3653 86.0844 14.92L86.0044 14.36C86.1964 13.752 86.5217 13.2933 86.9804 12.984C87.4497 12.664 87.9937 12.504 88.6124 12.504ZM96.5901 12.504C97.5288 12.504 98.2648 12.7813 98.7981 13.336C99.3315 13.8907 99.5981 14.7973 99.5981 16.056H94.3341L94.3021 15.752H97.5821C97.5928 15.2293 97.5608 14.7493 97.4861 14.312C97.4115 13.864 97.2941 13.5067 97.1341 13.24C96.9741 12.9733 96.7608 12.84 96.4941 12.84C96.1208 12.84 95.8008 13.0747 95.5341 13.544C95.2781 14.0133 95.1235 14.792 95.0701 15.88L95.1181 15.976C95.1075 16.104 95.0968 16.2373 95.0861 16.376C95.0861 16.5147 95.0861 16.6587 95.0861 16.808C95.0861 17.544 95.1875 18.1413 95.3901 18.6C95.6035 19.0587 95.8701 19.3947 96.1901 19.608C96.5101 19.8107 96.8355 19.912 97.1661 19.912C97.3901 19.912 97.6195 19.88 97.8541 19.816C98.0995 19.7413 98.3448 19.6133 98.5901 19.432C98.8355 19.24 99.0648 18.9733 99.2781 18.632L99.5661 18.728C99.4381 19.1333 99.2355 19.528 98.9581 19.912C98.6808 20.296 98.3288 20.6107 97.9021 20.856C97.4755 21.1013 96.9635 21.224 96.3661 21.224C95.6408 21.224 95.0008 21.0693 94.4461 20.76C93.8915 20.4507 93.4541 19.9813 93.1341 19.352C92.8248 18.7227 92.6701 17.9227 92.6701 16.952C92.6701 15.96 92.8355 15.1333 93.1661 14.472C93.5075 13.8107 93.9715 13.32 94.5581 13C95.1555 12.6693 95.8328 12.504 96.5901 12.504ZM105.935 12.504C106.276 12.504 106.554 12.5787 106.767 12.728C106.98 12.8667 107.135 13.048 107.231 13.272C107.338 13.496 107.391 13.7307 107.391 13.976C107.391 14.3707 107.274 14.696 107.039 14.952C106.815 15.1973 106.516 15.32 106.143 15.32C105.77 15.32 105.476 15.2293 105.263 15.048C105.06 14.856 104.959 14.6053 104.959 14.296C104.959 13.9973 105.023 13.752 105.151 13.56C105.29 13.3573 105.46 13.1867 105.663 13.048C105.514 13.0053 105.364 13.0107 105.215 13.064C105.012 13.096 104.82 13.1813 104.639 13.32C104.458 13.448 104.303 13.6133 104.175 13.816C104.047 14.008 103.946 14.2213 103.871 14.456C103.796 14.68 103.759 14.8987 103.759 15.112V19.352C103.759 19.864 103.882 20.2107 104.127 20.392C104.383 20.5733 104.762 20.664 105.263 20.664V21C105.018 20.9893 104.66 20.9787 104.191 20.968C103.722 20.9467 103.231 20.936 102.719 20.936C102.292 20.936 101.86 20.9467 101.423 20.968C100.986 20.9787 100.655 20.9893 100.431 21V20.664C100.804 20.664 101.066 20.584 101.215 20.424C101.375 20.264 101.455 19.96 101.455 19.512V14.472C101.455 13.992 101.38 13.64 101.231 13.416C101.092 13.1813 100.826 13.064 100.431 13.064V12.728C100.772 12.76 101.103 12.776 101.423 12.776C101.871 12.776 102.287 12.76 102.671 12.728C103.066 12.6853 103.428 12.6267 103.759 12.552V14.04C103.887 13.752 104.058 13.4907 104.271 13.256C104.484 13.0213 104.73 12.84 105.007 12.712C105.284 12.5733 105.594 12.504 105.935 12.504ZM112.046 8.488C112.419 8.488 112.744 8.536 113.022 8.632C113.299 8.728 113.544 8.856 113.758 9.016C113.907 9.13333 114.035 9.29867 114.142 9.512C114.248 9.71467 114.302 9.94933 114.302 10.216C114.302 10.504 114.195 10.76 113.982 10.984C113.779 11.208 113.507 11.32 113.166 11.32C112.814 11.32 112.52 11.2187 112.286 11.016C112.062 10.8133 111.95 10.536 111.95 10.184C111.95 9.90667 112.03 9.66133 112.19 9.448C112.35 9.23467 112.584 9.08533 112.894 9C112.862 8.936 112.798 8.88267 112.702 8.84C112.606 8.79733 112.478 8.776 112.318 8.776C112.104 8.776 111.928 8.81333 111.79 8.888C111.651 8.96267 111.539 9.064 111.454 9.192C111.336 9.352 111.256 9.58667 111.214 9.896C111.171 10.1947 111.15 10.6587 111.15 11.288V12.744H112.862V13.064H111.15V19.352C111.15 19.8747 111.283 20.2267 111.549 20.408C111.816 20.5787 112.184 20.664 112.654 20.664V21C112.376 20.9893 111.987 20.9787 111.486 20.968C110.984 20.9467 110.456 20.936 109.902 20.936C109.496 20.936 109.096 20.9467 108.702 20.968C108.318 20.9787 108.024 20.9893 107.822 21V20.664C108.195 20.664 108.456 20.584 108.606 20.424C108.766 20.264 108.846 19.96 108.846 19.512V13.064H107.758V12.744H108.846C108.846 12.1147 108.878 11.592 108.942 11.176C109.006 10.7493 109.112 10.3867 109.262 10.088C109.411 9.78933 109.608 9.52267 109.854 9.288C110.088 9.064 110.398 8.87733 110.782 8.728C111.176 8.568 111.598 8.488 112.046 8.488ZM117.293 12.504C118.072 12.504 118.755 12.648 119.341 12.936C119.928 13.224 120.387 13.688 120.717 14.328C121.048 14.968 121.213 15.816 121.213 16.872C121.213 17.928 121.048 18.776 120.717 19.416C120.387 20.0453 119.928 20.504 119.341 20.792C118.755 21.08 118.072 21.224 117.293 21.224C116.536 21.224 115.859 21.08 115.261 20.792C114.675 20.504 114.211 20.0453 113.869 19.416C113.539 18.776 113.373 17.928 113.373 16.872C113.373 15.816 113.539 14.968 113.869 14.328C114.211 13.688 114.675 13.224 115.261 12.936C115.859 12.648 116.536 12.504 117.293 12.504ZM117.293 12.824C116.867 12.824 116.509 13.144 116.221 13.784C115.933 14.4133 115.789 15.4427 115.789 16.872C115.789 18.3013 115.933 19.3307 116.221 19.96C116.509 20.5893 116.867 20.904 117.293 20.904C117.731 20.904 118.088 20.5893 118.365 19.96C118.653 19.3307 118.797 18.3013 118.797 16.872C118.797 15.4427 118.653 14.4133 118.365 13.784C118.088 13.144 117.731 12.824 117.293 12.824ZM127.716 12.504C128.057 12.504 128.335 12.5787 128.548 12.728C128.761 12.8667 128.916 13.048 129.012 13.272C129.119 13.496 129.172 13.7307 129.172 13.976C129.172 14.3707 129.055 14.696 128.82 14.952C128.596 15.1973 128.297 15.32 127.924 15.32C127.551 15.32 127.257 15.2293 127.044 15.048C126.841 14.856 126.74 14.6053 126.74 14.296C126.74 13.9973 126.804 13.752 126.932 13.56C127.071 13.3573 127.241 13.1867 127.444 13.048C127.295 13.0053 127.145 13.0107 126.996 13.064C126.793 13.096 126.601 13.1813 126.42 13.32C126.239 13.448 126.084 13.6133 125.956 13.816C125.828 14.008 125.727 14.2213 125.652 14.456C125.577 14.68 125.54 14.8987 125.54 15.112V19.352C125.54 19.864 125.663 20.2107 125.908 20.392C126.164 20.5733 126.543 20.664 127.044 20.664V21C126.799 20.9893 126.441 20.9787 125.972 20.968C125.503 20.9467 125.012 20.936 124.5 20.936C124.073 20.936 123.641 20.9467 123.204 20.968C122.767 20.9787 122.436 20.9893 122.212 21V20.664C122.585 20.664 122.847 20.584 122.996 20.424C123.156 20.264 123.236 19.96 123.236 19.512V14.472C123.236 13.992 123.161 13.64 123.012 13.416C122.873 13.1813 122.607 13.064 122.212 13.064V12.728C122.553 12.76 122.884 12.776 123.204 12.776C123.652 12.776 124.068 12.76 124.452 12.728C124.847 12.6853 125.209 12.6267 125.54 12.552V14.04C125.668 13.752 125.839 13.4907 126.052 13.256C126.265 13.0213 126.511 12.84 126.788 12.712C127.065 12.5733 127.375 12.504 127.716 12.504ZM135.489 12.504C135.937 12.504 136.3 12.5627 136.577 12.68C136.854 12.7867 137.078 12.936 137.249 13.128C137.42 13.3307 137.542 13.5973 137.617 13.928C137.692 14.248 137.729 14.6747 137.729 15.208V19.512C137.729 19.96 137.798 20.264 137.937 20.424C138.076 20.584 138.316 20.664 138.657 20.664V21C138.465 20.9893 138.172 20.9787 137.777 20.968C137.393 20.9467 137.014 20.936 136.641 20.936C136.257 20.936 135.878 20.9467 135.505 20.968C135.132 20.9787 134.849 20.9893 134.657 21V20.664C134.945 20.664 135.142 20.584 135.249 20.424C135.366 20.264 135.425 19.96 135.425 19.512V14.536C135.425 14.2693 135.404 14.04 135.361 13.848C135.318 13.6453 135.233 13.4907 135.105 13.384C134.988 13.2667 134.806 13.208 134.561 13.208C134.284 13.208 134.028 13.288 133.793 13.448C133.558 13.608 133.366 13.832 133.217 14.12C133.078 14.3973 133.009 14.712 133.009 15.064V19.512C133.009 19.96 133.068 20.264 133.185 20.424C133.302 20.584 133.5 20.664 133.777 20.664V21C133.606 20.9893 133.34 20.9787 132.977 20.968C132.625 20.9467 132.262 20.936 131.889 20.936C131.484 20.936 131.068 20.9467 130.641 20.968C130.214 20.9787 129.894 20.9893 129.681 21V20.664C130.054 20.664 130.316 20.584 130.465 20.424C130.625 20.264 130.705 19.96 130.705 19.512V14.472C130.705 13.992 130.63 13.64 130.481 13.416C130.342 13.1813 130.076 13.064 129.681 13.064V12.728C130.022 12.76 130.353 12.776 130.673 12.776C131.121 12.776 131.537 12.76 131.921 12.728C132.316 12.6853 132.678 12.6267 133.009 12.552V13.992C133.265 13.4587 133.612 13.08 134.049 12.856C134.486 12.6213 134.966 12.504 135.489 12.504ZM140.305 12.504C140.753 12.504 141.116 12.5627 141.393 12.68C141.67 12.7867 141.894 12.936 142.065 13.128C142.236 13.3307 142.358 13.5973 142.433 13.928C142.508 14.248 142.545 14.6747 142.545 15.208V19.512C142.545 19.96 142.62 20.264 142.769 20.424C142.929 20.584 143.196 20.664 143.569 20.664V21C143.366 20.9893 143.062 20.9787 142.657 20.968C142.252 20.9467 141.852 20.936 141.457 20.936C141.073 20.936 140.694 20.9467 140.321 20.968C139.948 20.9787 139.665 20.9893 139.473 21V20.664C139.761 20.664 139.958 20.584 140.065 20.424C140.182 20.264 140.241 19.96 140.241 19.512V14.536C140.241 14.2693 140.214 14.04 140.161 13.848C140.118 13.6453 140.028 13.4907 139.889 13.384C139.761 13.2667 139.558 13.208 139.281 13.208C139.004 13.208 138.748 13.2933 138.513 13.464C138.278 13.6347 138.086 13.864 137.937 14.152C137.798 14.44 137.724 14.76 137.713 15.112L137.633 14.136C137.921 13.496 138.3 13.064 138.769 12.84C139.249 12.616 139.761 12.504 140.305 12.504ZM146.373 21.112C145.893 21.112 145.493 21.0213 145.173 20.84C144.853 20.6587 144.619 20.4187 144.469 20.12C144.32 19.8107 144.245 19.4747 144.245 19.112C144.245 18.6533 144.347 18.28 144.549 17.992C144.763 17.704 145.035 17.4693 145.365 17.288C145.696 17.1067 146.043 16.9573 146.405 16.84C146.779 16.7227 147.131 16.6107 147.461 16.504C147.803 16.3867 148.075 16.2533 148.277 16.104C148.491 15.944 148.597 15.7413 148.597 15.496V14.248C148.597 13.9707 148.549 13.7253 148.453 13.512C148.368 13.288 148.229 13.1173 148.037 13C147.856 12.8827 147.616 12.824 147.317 12.824C147.104 12.824 146.891 12.856 146.677 12.92C146.464 12.9733 146.288 13.0693 146.149 13.208C146.448 13.3147 146.677 13.48 146.837 13.704C147.008 13.9173 147.093 14.1627 147.093 14.44C147.093 14.8027 146.965 15.0907 146.709 15.304C146.464 15.5173 146.171 15.624 145.829 15.624C145.445 15.624 145.152 15.5067 144.949 15.272C144.757 15.0267 144.661 14.7333 144.661 14.392C144.661 14.0827 144.736 13.8267 144.885 13.624C145.045 13.4213 145.264 13.2293 145.541 13.048C145.84 12.8773 146.197 12.744 146.613 12.648C147.04 12.552 147.499 12.504 147.989 12.504C148.48 12.504 148.923 12.5573 149.317 12.664C149.712 12.76 150.043 12.9413 150.309 13.208C150.555 13.4533 150.715 13.7573 150.789 14.12C150.864 14.472 150.901 14.92 150.901 15.464V19.816C150.901 20.0827 150.928 20.2693 150.981 20.376C151.035 20.472 151.125 20.52 151.253 20.52C151.349 20.52 151.44 20.4933 151.525 20.44C151.621 20.3867 151.723 20.3227 151.829 20.248L151.989 20.52C151.765 20.712 151.504 20.8613 151.205 20.968C150.917 21.064 150.592 21.112 150.229 21.112C149.835 21.112 149.52 21.0587 149.285 20.952C149.051 20.8347 148.88 20.68 148.773 20.488C148.677 20.296 148.629 20.072 148.629 19.816C148.373 20.2213 148.064 20.5413 147.701 20.776C147.339 21 146.896 21.112 146.373 21.112ZM147.509 20.088C147.723 20.088 147.915 20.04 148.085 19.944C148.267 19.8373 148.437 19.6667 148.597 19.432V16.152C148.501 16.312 148.368 16.456 148.197 16.584C148.027 16.712 147.845 16.8453 147.653 16.984C147.461 17.112 147.275 17.256 147.093 17.416C146.923 17.576 146.784 17.7733 146.677 18.008C146.571 18.2427 146.517 18.5253 146.517 18.856C146.517 19.272 146.608 19.5813 146.789 19.784C146.971 19.9867 147.211 20.088 147.509 20.088ZM158.399 12.504C158.847 12.504 159.209 12.5627 159.487 12.68C159.775 12.7867 159.999 12.936 160.159 13.128C160.329 13.3307 160.452 13.592 160.527 13.912C160.612 14.232 160.655 14.664 160.655 15.208V19.512C160.655 19.96 160.729 20.264 160.878 20.424C161.039 20.584 161.305 20.664 161.679 20.664V21C161.476 20.9893 161.172 20.9787 160.767 20.968C160.361 20.9467 159.961 20.936 159.567 20.936C159.161 20.936 158.761 20.9467 158.367 20.968C157.983 20.9787 157.689 20.9893 157.487 21V20.664C157.807 20.664 158.031 20.584 158.159 20.424C158.287 20.264 158.351 19.96 158.351 19.512V14.536C158.351 14.2693 158.324 14.04 158.271 13.848C158.217 13.6453 158.121 13.4907 157.983 13.384C157.844 13.2667 157.636 13.208 157.359 13.208C157.071 13.208 156.804 13.288 156.559 13.448C156.324 13.608 156.132 13.832 155.983 14.12C155.844 14.3973 155.775 14.712 155.775 15.064V19.512C155.775 19.96 155.839 20.264 155.967 20.424C156.105 20.584 156.329 20.664 156.639 20.664V21C156.447 20.9893 156.164 20.9787 155.791 20.968C155.428 20.9467 155.049 20.936 154.655 20.936C154.249 20.936 153.833 20.9467 153.407 20.968C152.98 20.9787 152.66 20.9893 152.447 21V20.664C152.82 20.664 153.081 20.584 153.231 20.424C153.391 20.264 153.471 19.96 153.471 19.512V14.472C153.471 13.992 153.396 13.64 153.247 13.416C153.108 13.1813 152.841 13.064 152.447 13.064V12.728C152.788 12.76 153.119 12.776 153.439 12.776C153.887 12.776 154.303 12.76 154.687 12.728C155.081 12.6853 155.444 12.6267 155.775 12.552V13.992C156.041 13.448 156.404 13.064 156.863 12.84C157.321 12.616 157.833 12.504 158.399 12.504ZM166.435 12.504C166.851 12.504 167.229 12.552 167.571 12.648C167.923 12.7333 168.211 12.8453 168.435 12.984C168.712 13.1547 168.925 13.368 169.075 13.624C169.235 13.8693 169.315 14.1573 169.315 14.488C169.315 14.8613 169.197 15.1707 168.963 15.416C168.728 15.6507 168.424 15.768 168.051 15.768C167.677 15.768 167.379 15.6613 167.155 15.448C166.931 15.2347 166.819 14.9467 166.819 14.584C166.819 14.2427 166.925 13.96 167.139 13.736C167.352 13.5013 167.597 13.3467 167.875 13.272C167.789 13.1653 167.661 13.0747 167.491 13C167.32 12.9253 167.128 12.888 166.915 12.888C166.584 12.888 166.291 12.984 166.035 13.176C165.789 13.368 165.581 13.6347 165.411 13.976C165.24 14.3173 165.107 14.7173 165.011 15.176C164.925 15.6347 164.883 16.136 164.883 16.68C164.883 17.5013 164.984 18.1467 165.187 18.616C165.4 19.0853 165.667 19.416 165.987 19.608C166.317 19.8 166.659 19.896 167.011 19.896C167.213 19.896 167.432 19.864 167.667 19.8C167.912 19.736 168.157 19.608 168.403 19.416C168.659 19.224 168.893 18.952 169.107 18.6L169.379 18.696C169.261 19.0907 169.069 19.4853 168.803 19.88C168.536 20.2747 168.189 20.6 167.763 20.856C167.336 21.1013 166.813 21.224 166.195 21.224C165.501 21.224 164.872 21.0747 164.307 20.776C163.752 20.4667 163.304 19.9973 162.963 19.368C162.632 18.728 162.467 17.9067 162.467 16.904C162.467 15.944 162.637 15.1387 162.979 14.488C163.331 13.8267 163.805 13.3307 164.403 13C165 12.6693 165.677 12.504 166.435 12.504ZM174.34 12.504C175.279 12.504 176.015 12.7813 176.548 13.336C177.081 13.8907 177.348 14.7973 177.348 16.056H172.084L172.052 15.752H175.332C175.343 15.2293 175.311 14.7493 175.236 14.312C175.161 13.864 175.044 13.5067 174.884 13.24C174.724 12.9733 174.511 12.84 174.244 12.84C173.871 12.84 173.551 13.0747 173.284 13.544C173.028 14.0133 172.873 14.792 172.82 15.88L172.868 15.976C172.857 16.104 172.847 16.2373 172.836 16.376C172.836 16.5147 172.836 16.6587 172.836 16.808C172.836 17.544 172.937 18.1413 173.14 18.6C173.353 19.0587 173.62 19.3947 173.94 19.608C174.26 19.8107 174.585 19.912 174.916 19.912C175.14 19.912 175.369 19.88 175.604 19.816C175.849 19.7413 176.095 19.6133 176.34 19.432C176.585 19.24 176.815 18.9733 177.028 18.632L177.316 18.728C177.188 19.1333 176.985 19.528 176.708 19.912C176.431 20.296 176.079 20.6107 175.652 20.856C175.225 21.1013 174.713 21.224 174.116 21.224C173.391 21.224 172.751 21.0693 172.196 20.76C171.641 20.4507 171.204 19.9813 170.884 19.352C170.575 18.7227 170.42 17.9227 170.42 16.952C170.42 15.96 170.585 15.1333 170.916 14.472C171.257 13.8107 171.721 13.32 172.308 13C172.905 12.6693 173.583 12.504 174.34 12.504Z" fill="black"/>
</svg>
